<svg xmlns="http://www.w3.org/2000/svg" viewBox="0 0 256 256" role="img" aria-label="Menstruation Tracker">
  <defs>
    <linearGradient id="g" x1="64" y1="32" x2="192" y2="224" gradientUnits="userSpaceOnUse">
      <stop offset="0" stop-color="#ff5b87"/>
      <stop offset="1" stop-color="#c81d5a"/>
    </linearGradient>
  </defs>
  <path fill="url(#g)" d="M128 28c-3 0-6 2-7 5-20 55-73 86-73 140 0 44 36 79 80 79s80-35 80-79c0-54-53-85-73-140-1-3-4-5-7-5z"/>
  <path fill="#ffffff" d="M128 210c-2 0-4-1-6-2-18-12-32-26-41-40-3-4-1-10 3-12 4-3 10-1 12 3 7 12 19 24 34 34 15-10 27-22 34-34 2-4 8-6 12-3 4 2 6 8 3 12-9 14-23 28-41 40-2 1-4 2-6 2z"/>
</svg>

