<svg xmlns="http://www.w3.org/2000/svg" viewBox="0 0 512 256" role="img" aria-label="Menstruation Tracker">
  <defs>
    <linearGradient id="g" x1="64" y1="24" x2="208" y2="232" gradientUnits="userSpaceOnUse">
      <stop offset="0" stop-color="#ff5b87"/>
      <stop offset="1" stop-color="#c81d5a"/>
    </linearGradient>
  </defs>
  <rect x="0" y="0" width="512" height="256" rx="40" fill="#0b0b12"/>
  <path fill="url(#g)" d="M144 36c-3 0-6 2-7 5-22 60-80 95-80 153 0 48 39 86 87 86s87-38 87-86c0-58-58-93-80-153-1-3-4-5-7-5z"/>
  <path fill="#ffffff" d="M144 228c-2 0-4-1-6-2-20-13-36-29-46-45-3-4-1-10 3-12 4-3 10-1 12 3 8 14 22 28 37 38 15-10 29-24 37-38 2-4 8-6 12-3 4 2 6 8 3 12-10 16-26 32-46 45-2 1-4 2-6 2z"/>
  <g fill="#ffffff" font-family="-apple-system,BlinkMacSystemFont,Segoe UI,Roboto,Helvetica,Arial,sans-serif" font-weight="700">
    <text x="260" y="118" font-size="32">Menstruation</text>
    <text x="260" y="162" font-size="32">Tracker</text>
  </g>
</svg>

